<mxfile host="app.diagrams.net" modified="2023-07-21T02:22:22.466Z" agent="Mozilla/5.0 (Windows NT 10.0; Win64; x64; rv:109.0) Gecko/20100101 Firefox/115.0" etag="YpFOpc8TafABQjf5DLen" version="21.6.2" type="device">
  <diagram name="PÃ¡gina-1" id="ACIpfwvY6OtmcBOpblR_">
    <mxGraphModel dx="1195" dy="622" grid="1" gridSize="10" guides="1" tooltips="1" connect="1" arrows="1" fold="1" page="1" pageScale="1" pageWidth="827" pageHeight="1169" math="0" shadow="0">
      <root>
        <mxCell id="0" />
        <mxCell id="1" parent="0" />
        <mxCell id="75u9EtzRQLWjxT4mXYtB-3" style="edgeStyle=orthogonalEdgeStyle;rounded=0;orthogonalLoop=1;jettySize=auto;html=1;entryX=0;entryY=0.5;entryDx=0;entryDy=0;" edge="1" parent="1" source="75u9EtzRQLWjxT4mXYtB-1" target="75u9EtzRQLWjxT4mXYtB-2">
          <mxGeometry relative="1" as="geometry" />
        </mxCell>
        <mxCell id="75u9EtzRQLWjxT4mXYtB-4" value="isConstitutionOf" style="edgeLabel;html=1;align=center;verticalAlign=middle;resizable=0;points=[];" vertex="1" connectable="0" parent="75u9EtzRQLWjxT4mXYtB-3">
          <mxGeometry x="0.0586" y="-1" relative="1" as="geometry">
            <mxPoint x="-6" y="-1" as="offset" />
          </mxGeometry>
        </mxCell>
        <mxCell id="75u9EtzRQLWjxT4mXYtB-9" style="rounded=0;orthogonalLoop=1;jettySize=auto;html=1;exitX=0;exitY=0;exitDx=0;exitDy=0;entryX=0.75;entryY=1;entryDx=0;entryDy=0;" edge="1" parent="1" source="75u9EtzRQLWjxT4mXYtB-1" target="75u9EtzRQLWjxT4mXYtB-8">
          <mxGeometry relative="1" as="geometry" />
        </mxCell>
        <mxCell id="75u9EtzRQLWjxT4mXYtB-10" value="event_type" style="edgeLabel;html=1;align=center;verticalAlign=middle;resizable=0;points=[];" vertex="1" connectable="0" parent="75u9EtzRQLWjxT4mXYtB-9">
          <mxGeometry x="-0.0415" y="-1" relative="1" as="geometry">
            <mxPoint x="6" as="offset" />
          </mxGeometry>
        </mxCell>
        <mxCell id="75u9EtzRQLWjxT4mXYtB-15" style="rounded=0;orthogonalLoop=1;jettySize=auto;html=1;exitX=0;exitY=1;exitDx=0;exitDy=0;entryX=0.617;entryY=0.02;entryDx=0;entryDy=0;entryPerimeter=0;" edge="1" parent="1" source="75u9EtzRQLWjxT4mXYtB-1" target="75u9EtzRQLWjxT4mXYtB-5">
          <mxGeometry relative="1" as="geometry" />
        </mxCell>
        <mxCell id="75u9EtzRQLWjxT4mXYtB-16" value="event_year" style="edgeLabel;html=1;align=center;verticalAlign=middle;resizable=0;points=[];" vertex="1" connectable="0" parent="75u9EtzRQLWjxT4mXYtB-15">
          <mxGeometry x="-0.3203" y="-1" relative="1" as="geometry">
            <mxPoint x="-4" y="5" as="offset" />
          </mxGeometry>
        </mxCell>
        <mxCell id="75u9EtzRQLWjxT4mXYtB-1" value="&lt;font face=&quot;Verdana&quot;&gt;Event&lt;/font&gt;" style="ellipse;whiteSpace=wrap;html=1;aspect=fixed;fillColor=#0050ef;strokeColor=#000000;fontColor=#ffffff;" vertex="1" parent="1">
          <mxGeometry x="280" y="200" width="80" height="80" as="geometry" />
        </mxCell>
        <mxCell id="75u9EtzRQLWjxT4mXYtB-2" value="&lt;font face=&quot;Verdana&quot;&gt;Territorio&lt;/font&gt;" style="ellipse;whiteSpace=wrap;html=1;aspect=fixed;fillColor=#0050ef;strokeColor=#000000;fontColor=#ffffff;" vertex="1" parent="1">
          <mxGeometry x="490" y="200" width="80" height="80" as="geometry" />
        </mxCell>
        <mxCell id="75u9EtzRQLWjxT4mXYtB-5" value="Int" style="rounded=0;whiteSpace=wrap;html=1;strokeColor=#000000;fillColor=#fdc502;" vertex="1" parent="1">
          <mxGeometry x="200" y="320" width="70" height="20" as="geometry" />
        </mxCell>
        <mxCell id="75u9EtzRQLWjxT4mXYtB-6" value="String" style="rounded=0;whiteSpace=wrap;html=1;strokeColor=#000000;fillColor=#fdc502;" vertex="1" parent="1">
          <mxGeometry x="130" y="260" width="70" height="20" as="geometry" />
        </mxCell>
        <mxCell id="75u9EtzRQLWjxT4mXYtB-7" value="Int" style="rounded=0;whiteSpace=wrap;html=1;strokeColor=#000000;fillColor=#fdc502;" vertex="1" parent="1">
          <mxGeometry x="130" y="200" width="70" height="20" as="geometry" />
        </mxCell>
        <mxCell id="75u9EtzRQLWjxT4mXYtB-8" value="String" style="rounded=0;whiteSpace=wrap;html=1;strokeColor=#000000;fillColor=#fdc502;" vertex="1" parent="1">
          <mxGeometry x="190" y="140" width="70" height="20" as="geometry" />
        </mxCell>
        <mxCell id="75u9EtzRQLWjxT4mXYtB-11" style="rounded=0;orthogonalLoop=1;jettySize=auto;html=1;exitX=-0.005;exitY=0.36;exitDx=0;exitDy=0;entryX=1;entryY=0.5;entryDx=0;entryDy=0;exitPerimeter=0;" edge="1" parent="1" source="75u9EtzRQLWjxT4mXYtB-1" target="75u9EtzRQLWjxT4mXYtB-7">
          <mxGeometry relative="1" as="geometry">
            <mxPoint x="270" y="260" as="sourcePoint" />
            <mxPoint x="231" y="228" as="targetPoint" />
          </mxGeometry>
        </mxCell>
        <mxCell id="75u9EtzRQLWjxT4mXYtB-12" value="id" style="edgeLabel;html=1;align=center;verticalAlign=middle;resizable=0;points=[];" vertex="1" connectable="0" parent="75u9EtzRQLWjxT4mXYtB-11">
          <mxGeometry x="-0.0415" y="-1" relative="1" as="geometry">
            <mxPoint x="3" y="1" as="offset" />
          </mxGeometry>
        </mxCell>
        <mxCell id="75u9EtzRQLWjxT4mXYtB-13" style="rounded=0;orthogonalLoop=1;jettySize=auto;html=1;exitX=0;exitY=0.625;exitDx=0;exitDy=0;entryX=1;entryY=0.25;entryDx=0;entryDy=0;exitPerimeter=0;" edge="1" parent="1" source="75u9EtzRQLWjxT4mXYtB-1" target="75u9EtzRQLWjxT4mXYtB-6">
          <mxGeometry relative="1" as="geometry">
            <mxPoint x="312" y="232" as="sourcePoint" />
            <mxPoint x="273" y="200" as="targetPoint" />
          </mxGeometry>
        </mxCell>
        <mxCell id="75u9EtzRQLWjxT4mXYtB-14" value="country" style="edgeLabel;html=1;align=center;verticalAlign=middle;resizable=0;points=[];" vertex="1" connectable="0" parent="75u9EtzRQLWjxT4mXYtB-13">
          <mxGeometry x="-0.0415" y="-1" relative="1" as="geometry">
            <mxPoint x="-1" y="4" as="offset" />
          </mxGeometry>
        </mxCell>
      </root>
    </mxGraphModel>
  </diagram>
</mxfile>
